<?xml version="1.0" encoding="UTF-8"?><svg id="Camada_1" xmlns="http://www.w3.org/2000/svg" viewBox="0 0 2000 644"><defs><style>.cls-1{fill:#e6e6e6;}</style></defs><path class="cls-1" d="m392.75,165.3c0,12.14.73,22.04,2.19,29.68,1.46,7.65,4.22,13.66,8.26,18.04,4.05,4.38,9.55,7.37,16.53,8.94,6.97,1.57,15.85,2.36,26.64,2.36h24.45c4.83,0,10.4-.05,16.69-.17,4.89-.09,10.4-.21,16.53-.36,2.76-.07,4.89,2.43,4.37,5.14l-7.42,38.21c-.38,1.98-2.1,3.43-4.12,3.49-12.34.38-22.31.57-29.93.57h-23.61c-20.01,0-36.93-1.86-50.76-5.57-13.83-3.71-25.01-9.72-33.56-18.04-8.55-8.31-14.67-19.28-18.38-32.88-3.71-13.6-5.56-30.4-5.56-50.42v-27.99c0-19.78,1.97-36.42,5.9-49.91,3.93-13.49,10.17-24.45,18.72-32.88,8.54-8.43,19.73-14.5,33.56-18.21,13.83-3.71,30.52-5.57,50.08-5.57h24.79c5.06,0,10.79.06,17.2.17,5.06.09,10.72.22,16.97.37,2.67.07,4.66,2.52,4.15,5.14l-7.44,38.28c-.4,2.07-2.22,3.54-4.33,3.49-7.21-.18-14.71-.31-22.5-.41-9.11-.11-17.93-.17-26.47-.17-11.02,0-19.96.79-26.81,2.36-6.86,1.58-12.26,4.5-16.19,8.77-3.94,4.27-6.58,10.23-7.93,17.87-1.35,7.65-2.02,17.65-2.02,30.02v29.68Z"/><path class="cls-1" d="m624.87,276.6c-21.14,0-38.73-2.14-52.78-6.41-14.05-4.27-25.29-10.84-33.72-19.73-8.43-8.88-14.39-20.18-17.87-33.89-3.49-13.71-5.23-30.02-5.23-48.9v-35.07c0-18.21,1.69-34.11,5.06-47.72,3.37-13.6,9.27-24.9,17.71-33.89,8.43-8.99,19.67-15.74,33.72-20.24,14.05-4.5,31.75-6.75,53.12-6.75s38.67,2.14,52.61,6.41c13.94,4.27,25.12,10.85,33.56,19.73,8.43,8.88,14.39,20.12,17.87,33.73,3.48,13.6,5.23,29.84,5.23,48.73v35.07c0,18.44-1.69,34.46-5.06,48.06-3.37,13.61-9.22,24.9-17.54,33.89-8.32,9-19.51,15.74-33.56,20.24-14.05,4.5-31.76,6.75-53.12,6.75Zm0-46.54c10.57,0,19.16-.78,25.8-2.36,6.63-1.57,11.86-4.66,15.68-9.27,3.82-4.61,6.46-11.01,7.93-19.22,1.46-8.21,2.19-18.94,2.19-32.21v-33.39c0-13.04-.73-23.72-2.19-32.04-1.47-8.31-4.1-14.72-7.93-19.22-3.83-4.5-9.05-7.59-15.68-9.27-6.63-1.69-15.23-2.53-25.8-2.53s-19.22.79-25.97,2.36c-6.74,1.58-12.03,4.67-15.85,9.27-3.83,4.61-6.47,11.02-7.93,19.22-1.47,8.21-2.19,18.94-2.19,32.21v33.39c0,13.04.73,23.66,2.19,31.87,1.46,8.21,4.1,14.62,7.93,19.22,3.82,4.61,9.11,7.76,15.85,9.44,6.74,1.69,15.4,2.53,25.97,2.53Z"/><path class="cls-1" d="m849.47,203.42l-46.2-89.37v156.48h-52.27V30.41h59.35l62.73,122.42,60.7-122.42h59.02v240.12h-52.27V112.36l-46.2,91.06h-44.85Z"/><path class="cls-1" d="m1069.35,189.59v80.94h-54.3V30.41h96.12c32.82,0,56.32,5.85,70.48,17.54,14.16,11.69,21.25,30.13,21.25,55.31v13.49c0,24.51-7.25,42.78-21.75,54.8-14.5,12.03-38.06,18.04-70.65,18.04h-41.14Zm77.9-81.61c0-6.52-.67-11.86-2.02-16.02-1.35-4.16-3.54-7.47-6.58-9.95-3.04-2.47-7.03-4.16-11.97-5.06-4.95-.9-11.13-1.35-18.55-1.35h-38.78v68.8h38.78c7.42,0,13.6-.45,18.55-1.35,4.94-.9,8.94-2.58,11.97-5.06,3.04-2.47,5.23-5.79,6.58-9.95,1.35-4.16,2.02-9.5,2.02-16.02v-4.05Z"/><path class="cls-1" d="m1403.56,113.03c0,17.54-3.66,31.53-10.96,41.99-7.31,10.45-17.93,18.16-31.87,23.1l54.3,92.4h-61.04l-45.87-84.31h-38.11v84.31h-54.3V30.41h96.79c16.19,0,30.01,1.35,41.48,4.05,11.47,2.7,20.85,6.97,28.16,12.82,7.3,5.85,12.7,13.44,16.19,22.76,3.48,9.33,5.23,20.63,5.23,33.89v9.11Zm-54.63-5.73c0-6.29-.67-11.52-2.02-15.68-1.35-4.16-3.49-7.42-6.41-9.78-2.93-2.36-6.8-3.99-11.64-4.89-4.84-.9-10.85-1.35-18.04-1.35h-40.81v66.78h40.81c7.19,0,13.21-.45,18.04-1.35,4.83-.9,8.71-2.58,11.64-5.06,2.92-2.47,5.06-5.79,6.41-9.95,1.35-4.16,2.02-9.5,2.02-16.02v-2.7Z"/><path class="cls-1" d="m1576.23,171.71h-100.16v51.94h121.75l-9.11,46.88h-168.29V30.41h175.37l-8.77,46.88h-110.95v47.55h108.93l-8.77,46.88Z"/><path class="cls-1" d="m1664.92,30.41v240.12h-55.65V30.41h55.65Z"/><path class="cls-1" d="m253.1,373.81l106.57,152.1v-152.1h52.61v240.12h-45.87l-105.56-150.75v150.75h-52.95v-240.12h45.19Z"/><path class="cls-1" d="m538.74,620c-21.14,0-38.73-2.14-52.78-6.41-14.05-4.27-25.29-10.85-33.72-19.73-8.43-8.88-14.39-20.18-17.87-33.89-3.49-13.71-5.23-30.02-5.23-48.9v-35.07c0-18.21,1.69-34.12,5.06-47.72,3.37-13.6,9.27-24.9,17.71-33.89,8.43-8.99,19.67-15.74,33.72-20.24,14.05-4.5,31.75-6.75,53.12-6.75s38.67,2.14,52.61,6.41c13.94,4.27,25.12,10.85,33.56,19.73,8.43,8.88,14.39,20.12,17.87,33.72,3.48,13.61,5.23,29.85,5.23,48.73v35.07c0,18.44-1.69,34.46-5.06,48.06-3.37,13.61-9.22,24.9-17.54,33.89-8.32,9-19.51,15.74-33.56,20.23-14.05,4.5-31.76,6.75-53.12,6.75Zm0-46.54c10.57,0,19.16-.78,25.8-2.36,6.63-1.57,11.86-4.66,15.68-9.27,3.82-4.61,6.46-11.01,7.93-19.22,1.46-8.2,2.19-18.94,2.19-32.21v-33.39c0-13.04-.73-23.72-2.19-32.04-1.47-8.32-4.11-14.72-7.93-19.22-3.83-4.49-9.05-7.59-15.68-9.27-6.63-1.68-15.23-2.53-25.8-2.53s-19.22.79-25.97,2.36c-6.74,1.58-12.03,4.67-15.85,9.27-3.83,4.61-6.47,11.02-7.93,19.22-1.47,8.21-2.19,18.94-2.19,32.21v33.39c0,13.04.73,23.66,2.19,31.87,1.46,8.21,4.1,14.62,7.93,19.22,3.82,4.61,9.11,7.76,15.85,9.44,6.74,1.69,15.4,2.53,25.97,2.53Z"/><path class="cls-1" d="m774.81,373.81v193.24h112.98l-9.11,46.88h-159.52v-240.12h55.64Z"/><path class="cls-1" d="m1057.41,515.12h-100.16v51.94h121.75l-9.11,46.88h-168.29v-240.12h175.37l-8.77,46.88h-110.95v47.55h108.93l-8.77,46.88Z"/><path class="cls-1" d="m1146.1,373.81v240.12h-55.65v-240.12h55.65Z"/><path class="cls-1" d="m1224,373.81v193.24h112.98l-9.11,46.88h-159.52v-240.12h55.65Z"/><path class="cls-1" d="m1503.08,555.92h-86.33l-18.89,58.01h-55.98l86.67-240.12h65.43l87.01,240.12h-58.34l-19.56-58.01Zm-45.87-208.08c-4.95-2.25-8.72-3.76-11.3-4.55-2.59-.78-5.12-1.18-7.59-1.18s-4.5.62-6.07,1.85c-1.58,1.24-2.36,4.33-2.36,9.27v3.37h-32.38v-3.71c0-17.08,2.92-29.05,8.77-35.92,5.84-6.86,13.94-10.28,24.28-10.28,4.72,0,9.66.67,14.84,2.02,5.17,1.35,10.68,3.26,16.52,5.73l4.05,1.69c4.94,2.02,8.71,3.49,11.3,4.38,2.58.9,5.11,1.35,7.59,1.35s4.5-.67,6.07-2.02c1.57-1.35,2.36-4.38,2.36-9.11v-3.71h32.38v4.05c0,16.86-2.92,28.78-8.77,35.75-5.85,6.97-13.94,10.45-24.28,10.45-4.72,0-9.61-.73-14.67-2.19-5.06-1.46-10.62-3.42-16.69-5.9l-4.05-1.35Zm-26.98,164.57h59.35l-30.01-89.37-29.34,89.37Z"/><path class="cls-1" d="m1682.82,620c-21.14,0-38.73-2.14-52.78-6.41-14.05-4.27-25.29-10.85-33.72-19.73-8.43-8.88-14.39-20.18-17.87-33.89-3.49-13.71-5.23-30.02-5.23-48.9v-35.07c0-18.21,1.69-34.12,5.06-47.72,3.37-13.6,9.27-24.9,17.71-33.89,8.43-8.99,19.67-15.74,33.72-20.24,14.05-4.5,31.75-6.75,53.12-6.75s38.67,2.14,52.61,6.41c13.94,4.27,25.12,10.85,33.56,19.73,8.43,8.88,14.39,20.12,17.87,33.72,3.48,13.61,5.23,29.85,5.23,48.73v35.07c0,18.44-1.69,34.46-5.06,48.06-3.37,13.61-9.22,24.9-17.54,33.89-8.32,9-19.51,15.74-33.56,20.23-14.05,4.5-31.76,6.75-53.12,6.75Zm0-46.54c10.57,0,19.17-.78,25.8-2.36,6.63-1.57,11.86-4.66,15.68-9.27,3.82-4.61,6.46-11.01,7.93-19.22,1.46-8.2,2.19-18.94,2.19-32.21v-33.39c0-13.04-.73-23.72-2.19-32.04-1.47-8.32-4.1-14.72-7.93-19.22-3.83-4.49-9.05-7.59-15.68-9.27-6.63-1.68-15.23-2.53-25.8-2.53s-19.22.79-25.97,2.36c-6.74,1.58-12.03,4.67-15.85,9.27-3.83,4.61-6.47,11.02-7.93,19.22-1.46,8.21-2.19,18.94-2.19,32.21v33.39c0,13.04.73,23.66,2.19,31.87,1.46,8.21,4.1,14.62,7.93,19.22,3.82,4.61,9.11,7.76,15.85,9.44,6.75,1.69,15.4,2.53,25.97,2.53Z"/></svg>