<?xml version="1.0" encoding="UTF-8"?><svg id="Camada_1" xmlns="http://www.w3.org/2000/svg" viewBox="0 0 2000 2000"><defs><style>.cls-1{fill:#0b253b;}</style></defs><path class="cls-1" d="m1251.72,543.46c3.93-17.89,5.98-36.4,5.98-55.24,0-22.69-2.95-44.71-8.48-65.67-13.99-53.07-44.53-99.5-85.74-133.43-15.01-12.31-31.4-22.99-48.94-31.72-34.5-17.21-73.41-26.9-114.54-26.9-43.96,0-85.36,11.06-121.59,30.55-20.94,11.23-40.13,25.29-57.09,41.66-33.9,32.65-58.92,74.48-70.98,121.44-5.25,20.49-8.06,41.96-8.06,64.07,0,16.79,1.63,33.32,4.78,49.39,12.18,62.32,47.01,117.79,97.05,155.84,3.46,2.61,6.98,5.15,10.56,7.61,1.91,1.31,2.7,3.72,1.89,5.89l-14.18,37.82-10.06,26.82-13.48,35.98-7.05,18.78c-.88,2.34.09,4.99,2.29,6.18,16.88,9.14,34.52,17.07,52.8,23.67l3.93-10.51,22.27-59.32,26-69.3,14.77-39.39c.98-2.6-.37-5.46-2.97-6.44-33.53-12.65-62.66-34.25-84.5-61.93-7.73-9.76-14.51-20.27-20.27-31.42-13.91-26.87-21.74-57.34-21.74-89.67,0-71.05,37.9-133.28,94.57-167.53,3.65-2.2,7.41-4.3,11.21-6.28,26.9-13.96,57.47-21.84,89.87-21.84,28.12,0,54.87,5.93,79.03,16.64,5.68,2.5,11.18,5.28,16.56,8.31,59.69,33.48,100.03,97.4,100.03,170.7,0,32.75-8.06,63.6-22.27,90.72-22.12,42.19-59.21,75.31-104.22,92.3-2.59.98-3.94,3.84-2.97,6.44l15.32,40.89,26.02,69.4,22.29,59.44,3.28,8.78h-266.2v.02l-9.93,26.52-10.8,28.76c-1.23,3.27,1.19,6.76,4.69,6.76h298.32c3.49,0,5.91-3.49,4.69-6.76l-11.78-31.42-8.96-23.87c17.24-6.23,33.9-13.63,49.91-22.14,3.87-2.06,5.57-6.71,4.03-10.81l-43.6-116.34c-.81-2.16-.02-4.57,1.88-5.87,7.08-4.83,13.87-10.01,20.38-15.5,43.26-36.33,73.76-86.29,86.02-142.11Z"/><path class="cls-1" d="m1192.12,1013.64l-7.74-20.65c-.73-1.95-2.6-3.25-4.69-3.25h-359.42c-2.09,0-3.95,1.29-4.69,3.25l-8.74,23.3-10.78,28.77c-1.23,3.27,1.19,6.76,4.69,6.76h398.45c3.49,0,5.91-3.49,4.69-6.76l-11.78-31.42Z"/><path class="cls-1" d="m1374.43,374.43c-33.45-110.28-114.31-199.95-218.84-245.31-47.69-20.69-100.3-32.15-155.59-32.15-59.37,0-115.66,13.24-166.08,36.9-99.95,46.91-176.81,134.9-208.86,242.18-10.61,35.53-16.31,73.18-16.31,112.16,0,121.87,55.71,230.73,143.08,302.47,2.64,2.17,6.65,1.06,7.85-2.14l11.4-30.4,8.09-21.57c.72-1.92.19-4.07-1.33-5.44-5.81-5.28-11.42-10.82-16.82-16.55-10.46-11.03-20.19-22.84-29.12-35.35-12.18-17.06-22.62-35.08-31.2-53.84-19.66-42.71-29.87-89.22-29.87-137.18,0-9.71.43-19.34,1.25-28.9,6.66-77.03,39.86-148.54,95.17-203.86,20.62-20.61,43.46-38.15,68-52.34,6.23-3.65,12.58-7.05,19.04-10.23,44.73-22.17,94.32-33.85,145.71-33.85,48.04,0,94.47,10.21,136.88,29.62,3.53,1.6,7.03,3.28,10.48,5,31.2,15.64,60.02,36.38,85.41,61.77,56.09,56.14,89.47,128.92,95.42,207.26.65,8.43.98,16.96.98,25.52,0,48.39-10.38,95.3-30.37,138.33-8.51,18.34-18.76,35.98-30.7,52.69-4.7,6.58-9.61,12.96-14.74,19.11-9.68,11.71-20.1,22.66-31.19,32.79-1.51,1.38-2.04,3.52-1.32,5.43l19.49,51.96c1.2,3.2,5.21,4.31,7.85,2.14,87.34-71.75,143.06-180.6,143.06-302.45,0-39.58-5.88-77.78-16.81-113.79Z"/><path class="cls-1" d="m280.13,1364c0,14.39.86,26.13,2.6,35.18,1.73,9.06,5,16.19,9.79,21.39,4.8,5.2,11.33,8.73,19.59,10.6,8.26,1.87,18.79,2.8,31.58,2.8h28.98c5.73,0,12.32-.06,19.79-.2,5.8-.1,12.33-.25,19.59-.43,3.27-.08,5.8,2.88,5.18,6.09l-8.8,45.3c-.46,2.35-2.49,4.07-4.88,4.14-14.62.45-26.45.67-35.48.67h-27.99c-23.73,0-43.78-2.2-60.17-6.6-16.39-4.4-29.65-11.52-39.78-21.39-10.13-9.86-17.39-22.85-21.79-38.98-4.4-16.12-6.6-36.04-6.6-59.77v-33.18c0-23.45,2.33-43.18,7-59.17,4.66-15.99,12.06-28.99,22.19-38.98,10.13-10,23.39-17.19,39.78-21.59,16.39-4.4,36.18-6.6,59.37-6.6h29.38c6,0,12.79.07,20.39.2,6,.11,12.7.26,20.12.44,3.17.08,5.52,2.99,4.92,6.1l-8.82,45.38c-.48,2.45-2.63,4.2-5.13,4.14-8.55-.21-17.44-.37-26.68-.49-10.79-.13-21.26-.2-31.38-.2-13.06,0-23.66.94-31.78,2.8-8.13,1.87-14.53,5.33-19.19,10.4-4.67,5.07-7.8,12.13-9.4,21.19-1.6,9.06-2.4,20.92-2.4,35.58v35.18Z"/><path class="cls-1" d="m555.29,1495.93c-25.06,0-45.91-2.54-62.57-7.6-16.66-5.06-29.98-12.85-39.98-23.39-9.99-10.53-17.06-23.92-21.19-40.18-4.14-16.25-6.2-35.58-6.2-57.97v-41.58c0-21.59,2-40.44,6-56.57,4-16.12,10.99-29.52,20.99-40.18,9.99-10.66,23.32-18.65,39.98-23.99,16.65-5.33,37.64-8,62.97-8s45.84,2.54,62.37,7.6c16.52,5.07,29.78,12.86,39.78,23.39,9.99,10.53,17.05,23.86,21.19,39.98,4.13,16.13,6.2,35.38,6.2,57.77v41.58c0,21.86-2,40.85-6,56.97-4,16.13-10.93,29.52-20.79,40.18-9.86,10.66-23.13,18.66-39.78,23.99-16.66,5.33-37.65,8-62.97,8Zm0-55.17c12.52,0,22.72-.93,30.58-2.8,7.86-1.86,14.06-5.53,18.59-10.99,4.53-5.46,7.66-13.06,9.4-22.79,1.73-9.73,2.6-22.45,2.6-38.18v-39.58c0-15.46-.87-28.12-2.6-37.98-1.74-9.86-4.87-17.45-9.4-22.79-4.53-5.33-10.73-8.99-18.59-10.99-7.87-2-18.06-3-30.58-3s-22.79.94-30.78,2.8c-8,1.87-14.26,5.53-18.79,10.99-4.54,5.47-7.66,13.06-9.4,22.79-1.74,9.73-2.6,22.46-2.6,38.18v39.58c0,15.46.86,28.05,2.6,37.78,1.73,9.73,4.86,17.33,9.4,22.79,4.53,5.47,10.79,9.19,18.79,11.19,8,2,18.25,3,30.78,3Z"/><path class="cls-1" d="m821.55,1409.18l-54.77-105.95v185.5h-61.97v-284.65h70.36l74.36,145.12,71.96-145.12h69.96v284.65h-61.97v-187.5l-54.77,107.94h-53.17Z"/><path class="cls-1" d="m1082.21,1392.79v95.95h-64.37v-284.65h113.94c38.91,0,66.77,6.93,83.56,20.79,16.79,13.86,25.19,35.72,25.19,65.57v15.99c0,29.05-8.6,50.71-25.79,64.97-17.19,14.26-45.11,21.39-83.76,21.39h-48.77Zm92.35-96.75c0-7.73-.8-14.06-2.4-18.99-1.6-4.93-4.2-8.86-7.8-11.79-3.6-2.93-8.33-4.93-14.19-6-5.87-1.06-13.19-1.6-21.99-1.6h-45.98v81.56h45.98c8.8,0,16.12-.53,21.99-1.6,5.86-1.06,10.59-3.06,14.19-6,3.6-2.93,6.2-6.86,7.8-11.8,1.6-4.93,2.4-11.26,2.4-18.99v-4.8Z"/><path class="cls-1" d="m1478.4,1302.03c0,20.79-4.33,37.38-12.99,49.77-8.66,12.39-21.26,21.53-37.78,27.39l64.37,109.54h-72.36l-54.37-99.95h-45.18v99.95h-64.37v-284.65h114.74c19.19,0,35.58,1.6,49.17,4.8,13.59,3.2,24.72,8.26,33.38,15.19,8.66,6.93,15.05,15.93,19.19,26.99,4.13,11.06,6.2,24.45,6.2,40.18v10.79Zm-64.77-6.8c0-7.46-.8-13.66-2.4-18.59-1.6-4.93-4.14-8.79-7.6-11.59-3.47-2.8-8.06-4.73-13.79-5.8-5.73-1.06-12.86-1.6-21.39-1.6h-48.38v79.16h48.38c8.53,0,15.65-.53,21.39-1.6,5.73-1.06,10.33-3.06,13.79-6,3.46-2.93,6-6.86,7.6-11.79,1.6-4.93,2.4-11.26,2.4-18.99v-3.2Z"/><path class="cls-1" d="m1683.1,1371.6h-118.74v61.57h144.33l-10.79,55.57h-199.5v-284.65h207.89l-10.39,55.57h-131.53v56.37h129.13l-10.39,55.57Z"/><path class="cls-1" d="m1788.24,1204.08v284.65h-65.97v-284.65h65.97Z"/><path class="cls-1" d="m114.57,1611.18l126.33,180.31v-180.31h62.37v284.65h-54.37l-125.14-178.71v178.71h-62.77v-284.65h53.57Z"/><path class="cls-1" d="m453.19,1903.03c-25.06,0-45.91-2.54-62.57-7.59-16.66-5.06-29.98-12.86-39.98-23.39-9.99-10.53-17.06-23.92-21.19-40.18-4.14-16.25-6.2-35.58-6.2-57.97v-41.58c0-21.59,2-40.44,6-56.57,4-16.12,10.99-29.51,20.99-40.18,9.99-10.66,23.32-18.65,39.98-23.99,16.65-5.33,37.64-8,62.97-8s45.84,2.54,62.37,7.6c16.52,5.07,29.78,12.86,39.78,23.39,9.99,10.53,17.05,23.85,21.19,39.98,4.13,16.13,6.2,35.38,6.2,57.77v41.58c0,21.86-2,40.85-6,56.97-4,16.13-10.93,29.52-20.79,40.18-9.86,10.66-23.13,18.66-39.78,23.99-16.66,5.33-37.65,8-62.97,8Zm0-55.17c12.52,0,22.72-.93,30.58-2.8,7.86-1.86,14.06-5.53,18.59-10.99,4.53-5.46,7.66-13.06,9.4-22.79,1.73-9.72,2.6-22.45,2.6-38.18v-39.58c0-15.45-.87-28.12-2.6-37.98-1.74-9.86-4.87-17.46-9.4-22.79-4.53-5.33-10.73-8.99-18.59-10.99-7.86-2-18.06-3-30.58-3s-22.79.94-30.78,2.8c-8,1.87-14.26,5.53-18.79,10.99-4.54,5.47-7.66,13.06-9.4,22.79-1.74,9.73-2.6,22.46-2.6,38.18v39.58c0,15.46.86,28.05,2.6,37.78,1.73,9.73,4.86,17.33,9.4,22.79,4.53,5.47,10.79,9.2,18.79,11.19,8,2,18.25,3,30.78,3Z"/><path class="cls-1" d="m733.05,1611.18v229.08h133.93l-10.79,55.57h-189.1v-284.65h65.97Z"/><path class="cls-1" d="m1068.06,1778.69h-118.74v61.57h144.33l-10.79,55.57h-199.5v-284.65h207.89l-10.39,55.57h-131.53v56.37h129.13l-10.39,55.57Z"/><path class="cls-1" d="m1173.2,1611.18v284.65h-65.97v-284.65h65.97Z"/><path class="cls-1" d="m1265.55,1611.18v229.08h133.93l-10.79,55.57h-189.1v-284.65h65.97Z"/><path class="cls-1" d="m1596.38,1827.07h-102.35l-22.39,68.77h-66.37l102.75-284.65h77.56l103.15,284.65h-69.16l-23.19-68.77Zm-54.37-246.67c-5.87-2.66-10.33-4.46-13.39-5.4-3.07-.93-6.06-1.4-9-1.4s-5.33.74-7.2,2.2c-1.87,1.47-2.8,5.14-2.8,10.99v4h-38.38v-4.4c0-20.25,3.46-34.44,10.39-42.58,6.93-8.13,16.52-12.19,28.78-12.19,5.6,0,11.46.8,17.59,2.4,6.13,1.6,12.66,3.87,19.59,6.8l4.8,2c5.86,2.4,10.33,4.13,13.39,5.19,3.06,1.07,6.06,1.6,9,1.6s5.33-.8,7.2-2.4c1.86-1.6,2.8-5.2,2.8-10.79v-4.4h38.38v4.8c0,19.99-3.47,34.12-10.39,42.38-6.93,8.26-16.53,12.39-28.79,12.39-5.6,0-11.39-.86-17.39-2.6-6-1.73-12.59-4.06-19.79-6.99l-4.8-1.6Zm-31.98,195.1h70.36l-35.58-105.94-34.78,105.94Z"/><path class="cls-1" d="m1809.47,1903.03c-25.06,0-45.91-2.54-62.57-7.59-16.66-5.06-29.98-12.86-39.98-23.39-10-10.53-17.06-23.92-21.19-40.18-4.14-16.25-6.2-35.58-6.2-57.97v-41.58c0-21.59,2-40.44,6-56.57,4-16.12,10.99-29.51,20.99-40.18,9.99-10.66,23.32-18.65,39.98-23.99,16.65-5.33,37.64-8,62.97-8s45.84,2.54,62.37,7.6c16.52,5.07,29.78,12.86,39.78,23.39,9.99,10.53,17.05,23.85,21.19,39.98,4.13,16.13,6.2,35.38,6.2,57.77v41.58c0,21.86-2,40.85-6,56.97-4,16.13-10.93,29.52-20.79,40.18-9.86,10.66-23.13,18.66-39.78,23.99-16.66,5.33-37.65,8-62.97,8Zm0-55.17c12.52,0,22.72-.93,30.58-2.8,7.86-1.86,14.06-5.53,18.59-10.99,4.53-5.46,7.66-13.06,9.4-22.79,1.73-9.72,2.6-22.45,2.6-38.18v-39.58c0-15.45-.87-28.12-2.6-37.98-1.74-9.86-4.87-17.46-9.4-22.79-4.54-5.33-10.73-8.99-18.59-10.99-7.86-2-18.06-3-30.58-3s-22.79.94-30.78,2.8c-8,1.87-14.26,5.53-18.79,10.99-4.54,5.47-7.66,13.06-9.4,22.79-1.74,9.73-2.6,22.46-2.6,38.18v39.58c0,15.46.86,28.05,2.6,37.78,1.73,9.73,4.86,17.33,9.4,22.79,4.53,5.47,10.79,9.2,18.79,11.19,8,2,18.25,3,30.78,3Z"/></svg>