<?xml version="1.0" encoding="UTF-8"?><svg id="Camada_1" xmlns="http://www.w3.org/2000/svg" viewBox="0 0 2000 2000"><defs><style>.cls-1{fill:#e6e6e6;}</style></defs><path class="cls-1" d="m1499.82,938.57c7.8-35.52,11.87-72.28,11.87-109.69,0-45.06-5.86-88.78-16.84-130.41-27.77-105.37-88.43-197.57-170.25-264.94-29.81-24.44-62.35-45.65-97.17-62.99-68.51-34.18-145.76-53.4-227.43-53.4-87.29,0-169.51,21.96-241.44,60.66-41.58,22.3-79.69,50.22-113.37,82.72-67.31,64.83-116.99,147.89-140.94,241.14-10.43,40.69-16,83.31-16,127.23,0,33.33,3.23,66.17,9.49,98.07,24.19,123.75,93.35,233.89,192.71,309.45,6.87,5.19,13.85,10.23,20.98,15.11,3.79,2.59,5.36,7.4,3.75,11.69l-28.15,75.09-19.97,53.25-26.78,71.44-14,37.3c-1.74,4.65.18,9.91,4.55,12.27,33.52,18.15,68.54,33.89,104.84,47l7.8-20.87,44.21-117.79,51.62-137.61,29.32-78.21c1.94-5.17-.74-10.84-5.9-12.79-66.58-25.12-124.41-68.01-167.79-122.97-15.35-19.37-28.81-40.24-40.24-62.4-27.62-53.35-43.17-113.86-43.17-178.05,0-141.09,75.26-264.64,187.79-332.65,7.25-4.37,14.7-8.55,22.26-12.47,53.4-27.72,114.11-43.37,178.45-43.37,55.84,0,108.94,11.77,156.94,33.04,11.28,4.97,22.21,10.48,32.89,16.49,118.53,66.47,198.62,193.4,198.62,338.96,0,65.03-16,126.28-44.21,180.14-43.93,83.77-117.58,149.54-206.94,183.28-5.15,1.94-7.83,7.63-5.9,12.79l30.42,81.19,51.67,137.81,44.26,118.04,6.51,17.44h-528.58v.05l-19.72,52.66-21.44,57.12c-2.44,6.5,2.36,13.43,9.3,13.43h592.36c6.94,0,11.74-6.93,9.3-13.42l-23.39-62.39-17.79-47.39c34.23-12.37,67.32-27.07,99.1-43.96,7.68-4.08,11.05-13.32,8-21.47l-86.58-231.01c-1.61-4.29-.04-9.07,3.74-11.66,14.05-9.6,27.54-19.87,40.47-30.77,85.9-72.13,146.46-171.34,170.8-282.18Z"/><path class="cls-1" d="m1381.49,1872.19l-15.37-40.99c-1.45-3.88-5.16-6.45-9.3-6.45h-713.68c-4.14,0-7.85,2.57-9.3,6.45l-17.35,46.26-21.4,57.12c-2.43,6.5,2.37,13.42,9.31,13.42h791.18c6.94,0,11.74-6.93,9.3-13.42l-23.38-62.39Z"/><path class="cls-1" d="m1743.5,602.94c-66.42-218.99-226.98-397.03-434.54-487.1-94.69-41.08-199.16-63.84-308.95-63.84-117.89,0-229.67,26.28-329.77,73.28-198.47,93.15-351.08,267.87-414.72,480.89-21.06,70.55-32.39,145.31-32.39,222.71,0,242,110.63,458.14,284.11,600.61,5.24,4.31,13.2,2.1,15.58-4.26l22.63-60.36,16.06-42.82c1.43-3.81.37-8.07-2.64-10.81-11.53-10.48-22.67-21.48-33.4-32.86-20.76-21.91-40.09-45.36-57.82-70.2-24.19-33.88-44.91-69.65-61.95-106.91-39.05-84.8-59.32-177.16-59.32-272.39,0-19.27.84-38.4,2.48-57.38,13.22-152.96,79.14-294.95,188.98-404.79,40.94-40.93,86.29-75.76,135.03-103.93,12.37-7.25,24.99-14.01,37.81-20.32,88.83-44.01,187.29-67.21,289.33-67.21,95.38,0,187.59,20.27,271.79,58.82,7,3.18,13.96,6.51,20.82,9.94,61.95,31.05,119.18,72.23,169.6,122.66,111.38,111.48,177.65,256,189.47,411.54,1.29,16.74,1.94,33.68,1.94,50.67,0,96.08-20.62,189.23-60.31,274.68-16.89,36.42-37.26,71.44-60.96,104.62-9.34,13.07-19.08,25.73-29.26,37.96-19.22,23.25-39.91,44.99-61.94,65.1-2.99,2.73-4.04,6.98-2.62,10.78l38.7,103.17c2.38,6.35,10.34,8.56,15.58,4.25,173.43-142.46,284.06-358.6,284.06-600.55,0-78.59-11.68-154.45-33.39-225.94Z"/></svg>