<?xml version="1.0" encoding="UTF-8"?><svg id="Camada_1" xmlns="http://www.w3.org/2000/svg" viewBox="0 0 2000 644"><defs><style>.cls-1{fill:#e6e6e6;}</style></defs><path class="cls-1" d="m421.67,303.2c2.39-10.87,3.63-22.12,3.63-33.57,0-13.79-1.79-27.17-5.15-39.9-8.5-32.24-27.06-60.46-52.1-81.07-9.12-7.48-19.08-13.97-29.73-19.28-20.96-10.46-44.6-16.34-69.59-16.34-26.71,0-51.87,6.72-73.88,18.56-12.72,6.83-24.38,15.37-34.69,25.31-20.6,19.84-35.8,45.26-43.13,73.79-3.19,12.45-4.9,25.49-4.9,38.93,0,10.2.99,20.25,2.9,30.01,7.4,37.87,28.56,71.57,58.97,94.69,2.1,1.59,4.24,3.13,6.42,4.62,1.16.79,1.64,2.26,1.15,3.58l-8.61,22.98-6.11,16.3-8.19,21.86-4.28,11.41c-.53,1.42.06,3.03,1.39,3.76,10.26,5.55,20.97,10.37,32.08,14.38l2.39-6.38,13.53-36.04,15.79-42.11,8.97-23.93c.59-1.58-.23-3.32-1.81-3.91-20.37-7.69-38.07-20.81-51.34-37.63-4.7-5.93-8.82-12.31-12.31-19.09-8.45-16.33-13.21-34.84-13.21-54.48,0-43.17,23.03-80.98,57.46-101.79,2.22-1.34,4.5-2.62,6.81-3.82,16.34-8.48,34.92-13.27,54.6-13.27,17.09,0,33.34,3.6,48.02,10.11,3.45,1.52,6.79,3.21,10.06,5.05,36.27,20.34,60.78,59.18,60.78,103.72,0,19.9-4.9,38.64-13.53,55.12-13.44,25.63-35.98,45.76-63.32,56.08-1.58.6-2.4,2.34-1.81,3.91l9.31,24.84,15.81,42.17,13.54,36.12,1.99,5.34h-161.75s-6.04,16.13-6.04,16.13l-6.56,17.48c-.75,1.99.72,4.11,2.85,4.11h181.26c2.12,0,3.59-2.12,2.85-4.11l-7.16-19.09-5.44-14.5c10.48-3.78,20.6-8.28,30.32-13.45,2.35-1.25,3.38-4.08,2.45-6.57l-26.49-70.69c-.49-1.31-.01-2.78,1.14-3.57,4.3-2.94,8.43-6.08,12.38-9.42,26.28-22.07,44.82-52.43,52.26-86.34Z"/><path class="cls-1" d="m385.46,588.89l-4.7-12.54c-.44-1.19-1.58-1.97-2.85-1.97h-218.38c-1.27,0-2.4.79-2.85,1.97l-5.31,14.16-6.55,17.48c-.74,1.99.72,4.11,2.85,4.11h242.1c2.12,0,3.59-2.12,2.85-4.11l-7.16-19.09Z"/><path class="cls-1" d="m496.23,200.5c-20.32-67.01-69.46-121.49-132.97-149.05-28.97-12.57-60.94-19.53-94.54-19.53-36.07,0-70.28,8.04-100.91,22.42-60.73,28.5-107.43,81.97-126.9,147.15-6.45,21.59-9.91,44.46-9.91,68.15,0,74.05,33.85,140.19,86.94,183.78,1.6,1.32,4.04.64,4.77-1.3l6.93-18.47,4.92-13.1c.44-1.17.11-2.47-.81-3.31-3.53-3.21-6.94-6.57-10.22-10.05-6.35-6.7-12.27-13.88-17.69-21.48-7.4-10.37-13.74-21.31-18.96-32.71-11.95-25.95-18.15-54.21-18.15-83.35,0-5.9.26-11.75.76-17.56,4.04-46.81,24.22-90.25,57.83-123.86,12.53-12.53,26.41-23.18,41.32-31.8,3.78-2.22,7.65-4.29,11.57-6.22,27.18-13.47,57.31-20.57,88.53-20.57,29.19,0,57.4,6.2,83.17,18,2.14.97,4.27,1.99,6.37,3.04,18.96,9.5,36.47,22.1,51.9,37.53,34.08,34.11,54.36,78.33,57.98,125.93.4,5.12.59,10.31.59,15.51,0,29.4-6.31,57.9-18.45,84.05-5.17,11.14-11.4,21.86-18.65,32.01-2.86,4-5.84,7.87-8.95,11.61-5.88,7.11-12.21,13.77-18.95,19.92-.92.84-1.24,2.14-.8,3.3l11.84,31.57c.73,1.94,3.16,2.62,4.77,1.3,53.07-43.59,86.92-109.73,86.92-183.77,0-24.05-3.57-47.26-10.22-69.14Z"/><path class="cls-1" d="m730.3,195.16c0,9.83.59,17.84,1.77,24.02,1.18,6.19,3.41,11.06,6.69,14.61,3.28,3.55,7.73,5.96,13.38,7.23,5.64,1.27,12.83,1.91,21.57,1.91h19.79c3.91,0,8.42-.04,13.51-.14,3.96-.07,8.42-.17,13.38-.29,2.23-.06,3.96,1.97,3.54,4.16l-6.01,30.93c-.31,1.6-1.7,2.78-3.33,2.83-9.99.3-18.06.46-24.23.46h-19.11c-16.2,0-29.89-1.5-41.09-4.51-11.19-3-20.25-7.87-27.16-14.61-6.92-6.73-11.88-15.6-14.88-26.62-3-11.01-4.5-24.61-4.5-40.81v-22.66c0-16.01,1.59-29.48,4.78-40.4,3.18-10.92,8.23-19.79,15.15-26.62,6.91-6.83,15.97-11.74,27.16-14.74,11.19-3,24.71-4.51,40.54-4.51h20.07c4.09,0,8.74.05,13.92.14,4.1.07,8.67.17,13.74.3,2.16.05,3.77,2.04,3.36,4.16l-6.02,30.99c-.33,1.67-1.8,2.87-3.5,2.83-5.84-.14-11.91-.25-18.22-.33-7.37-.09-14.52-.14-21.43-.14-8.92,0-16.15.64-21.7,1.91-5.55,1.28-9.92,3.64-13.1,7.1-3.19,3.46-5.32,8.28-6.42,14.47-1.09,6.19-1.64,14.29-1.64,24.3v24.02Z"/><path class="cls-1" d="m918.2,285.25c-17.11,0-31.35-1.73-42.72-5.19-11.38-3.46-20.47-8.78-27.3-15.97-6.82-7.19-11.65-16.33-14.47-27.44-2.82-11.1-4.23-24.3-4.23-39.58v-28.39c0-14.74,1.37-27.61,4.1-38.63,2.73-11.01,7.51-20.16,14.33-27.44,6.82-7.28,15.92-12.74,27.3-16.38,11.37-3.64,25.7-5.46,43-5.46s31.3,1.73,42.59,5.19c11.28,3.46,20.34,8.78,27.16,15.97,6.82,7.19,11.64,16.29,14.47,27.3,2.82,11.01,4.23,24.16,4.23,39.45v28.39c0,14.93-1.37,27.89-4.09,38.9-2.73,11.01-7.46,20.16-14.2,27.44-6.74,7.28-15.79,12.74-27.16,16.38-11.38,3.64-25.71,5.46-43,5.46Zm0-37.67c8.55,0,15.51-.63,20.88-1.91,5.37-1.27,9.6-3.78,12.69-7.51,3.09-3.73,5.23-8.92,6.42-15.56,1.18-6.64,1.77-15.33,1.77-26.07v-27.03c0-10.55-.59-19.2-1.77-25.94-1.19-6.73-3.32-11.92-6.42-15.56-3.1-3.64-7.33-6.14-12.69-7.51-5.37-1.37-12.33-2.05-20.88-2.05s-15.56.64-21.02,1.91c-5.46,1.28-9.74,3.78-12.83,7.51-3.1,3.73-5.23,8.92-6.42,15.56-1.19,6.65-1.77,15.33-1.77,26.07v27.03c0,10.56.59,19.16,1.77,25.8,1.18,6.64,3.32,11.83,6.42,15.56,3.09,3.73,7.37,6.28,12.83,7.64,5.46,1.37,12.46,2.05,21.02,2.05Z"/><path class="cls-1" d="m1100.01,226.01l-37.4-72.35v126.67h-42.31V85.96h48.05l50.78,99.1,49.14-99.1h47.77v194.37h-42.31v-128.03l-37.4,73.71h-36.31Z"/><path class="cls-1" d="m1278,214.81v65.52h-43.95V85.96h77.8c26.57,0,45.59,4.73,57.06,14.19,11.47,9.47,17.2,24.39,17.2,44.77v10.92c0,19.84-5.87,34.63-17.61,44.36-11.74,9.74-30.81,14.61-57.19,14.61h-33.31Zm63.06-66.07c0-5.28-.55-9.6-1.64-12.97-1.09-3.37-2.87-6.05-5.32-8.05-2.46-2-5.69-3.37-9.69-4.09-4.01-.73-9.01-1.09-15.01-1.09h-31.39v55.69h31.39c6.01,0,11.01-.36,15.01-1.09,4-.73,7.23-2.09,9.69-4.09,2.46-2,4.23-4.68,5.32-8.05,1.09-3.36,1.64-7.69,1.64-12.97v-3.28Z"/><path class="cls-1" d="m1548.54,152.84c0,14.19-2.96,25.52-8.87,33.99-5.92,8.46-14.52,14.7-25.8,18.7l43.95,74.8h-49.41l-37.13-68.25h-30.85v68.25h-43.95V85.96h78.35c13.1,0,24.3,1.09,33.58,3.27,9.28,2.19,16.88,5.64,22.8,10.37,5.91,4.73,10.28,10.88,13.1,18.43,2.82,7.55,4.23,16.7,4.23,27.44v7.37Zm-44.23-4.64c0-5.09-.55-9.32-1.64-12.69-1.09-3.37-2.82-6.01-5.19-7.92-2.37-1.91-5.51-3.23-9.42-3.96-3.92-.73-8.78-1.09-14.61-1.09h-33.03v54.05h33.03c5.82,0,10.69-.36,14.61-1.09,3.91-.72,7.05-2.09,9.42-4.09,2.36-2,4.09-4.68,5.19-8.05,1.09-3.37,1.64-7.69,1.64-12.97v-2.18Z"/><path class="cls-1" d="m1688.31,200.34h-81.08v42.04h98.55l-7.37,37.95h-136.23V85.96h141.96l-7.1,37.95h-89.82v38.49h88.18l-7.1,37.95Z"/><path class="cls-1" d="m1760.1,85.96v194.37h-45.04V85.96h45.04Z"/><path class="cls-1" d="m720.2,363.94l86.27,123.12v-123.12h42.59v194.37h-37.13l-85.45-122.03v122.03h-42.86v-194.37h36.58Z"/><path class="cls-1" d="m951.43,563.23c-17.11,0-31.35-1.73-42.72-5.19-11.38-3.46-20.47-8.78-27.3-15.97-6.82-7.19-11.65-16.33-14.47-27.44-2.82-11.1-4.23-24.3-4.23-39.58v-28.39c0-14.74,1.37-27.62,4.1-38.63,2.73-11.01,7.51-20.15,14.33-27.44,6.82-7.28,15.92-12.74,27.3-16.38,11.37-3.64,25.7-5.46,43-5.46s31.3,1.73,42.59,5.19c11.28,3.46,20.34,8.78,27.16,15.97,6.82,7.19,11.64,16.29,14.47,27.3,2.82,11.01,4.23,24.16,4.23,39.45v28.39c0,14.93-1.37,27.89-4.09,38.9-2.73,11.01-7.46,20.16-14.2,27.44-6.74,7.28-15.79,12.74-27.16,16.38-11.38,3.64-25.71,5.46-43,5.46Zm0-37.67c8.55,0,15.51-.63,20.88-1.91,5.37-1.27,9.6-3.77,12.69-7.51,3.09-3.73,5.23-8.92,6.42-15.56,1.18-6.64,1.77-15.33,1.77-26.07v-27.03c0-10.55-.59-19.2-1.77-25.93-1.19-6.73-3.32-11.92-6.42-15.56-3.1-3.64-7.33-6.14-12.69-7.51-5.37-1.36-12.33-2.05-20.88-2.05s-15.56.64-21.02,1.91c-5.46,1.28-9.74,3.78-12.83,7.51-3.1,3.73-5.23,8.92-6.42,15.56-1.19,6.64-1.77,15.33-1.77,26.07v27.03c0,10.56.59,19.16,1.77,25.8,1.18,6.65,3.32,11.83,6.42,15.56,3.09,3.73,7.37,6.28,12.83,7.64,5.46,1.37,12.46,2.05,21.02,2.05Z"/><path class="cls-1" d="m1142.52,363.94v156.43h91.45l-7.37,37.95h-129.13v-194.37h45.04Z"/><path class="cls-1" d="m1371.29,478.33h-81.08v42.04h98.55l-7.37,37.95h-136.23v-194.37h141.96l-7.1,37.95h-89.82v38.49h88.18l-7.1,37.95Z"/><path class="cls-1" d="m1443.08,363.94v194.37h-45.04v-194.37h45.04Z"/><path class="cls-1" d="m1506.14,363.94v156.43h91.45l-7.37,37.95h-129.13v-194.37h45.04Z"/><path class="cls-1" d="m1732.04,511.36h-69.89l-15.29,46.96h-45.32l70.16-194.37h52.96l70.43,194.37h-47.23l-15.83-46.96Zm-37.13-168.44c-4.01-1.82-7.06-3.04-9.15-3.69-2.09-.63-4.14-.95-6.14-.95s-3.64.5-4.91,1.5c-1.28,1-1.91,3.51-1.91,7.51v2.73h-26.21v-3c0-13.83,2.36-23.52,7.1-29.07,4.73-5.55,11.28-8.33,19.66-8.33,3.82,0,7.82.55,12.01,1.64,4.18,1.09,8.64,2.64,13.38,4.64l3.28,1.37c4,1.64,7.05,2.82,9.15,3.55,2.09.73,4.14,1.09,6.14,1.09s3.64-.55,4.91-1.64c1.27-1.09,1.91-3.55,1.91-7.37v-3h26.21v3.27c0,13.65-2.37,23.3-7.1,28.94-4.74,5.64-11.29,8.46-19.66,8.46-3.82,0-7.78-.59-11.88-1.77-4.09-1.18-8.6-2.77-13.51-4.78l-3.28-1.09Zm-21.84,133.22h48.05l-24.3-72.34-23.75,72.34Z"/><path class="cls-1" d="m1877.55,563.23c-17.11,0-31.35-1.73-42.72-5.19-11.38-3.46-20.47-8.78-27.3-15.97-6.83-7.19-11.65-16.33-14.47-27.44-2.82-11.1-4.23-24.3-4.23-39.58v-28.39c0-14.74,1.37-27.62,4.1-38.63,2.73-11.01,7.51-20.15,14.33-27.44,6.82-7.28,15.92-12.74,27.3-16.38,11.37-3.64,25.7-5.46,43-5.46s31.3,1.73,42.59,5.19c11.28,3.46,20.34,8.78,27.16,15.97,6.82,7.19,11.64,16.29,14.47,27.3,2.82,11.01,4.23,24.16,4.23,39.45v28.39c0,14.93-1.37,27.89-4.1,38.9-2.73,11.01-7.46,20.16-14.2,27.44-6.74,7.28-15.79,12.74-27.16,16.38-11.38,3.64-25.71,5.46-43,5.46Zm0-37.67c8.55,0,15.51-.63,20.88-1.91,5.37-1.27,9.6-3.77,12.69-7.51,3.09-3.73,5.23-8.92,6.42-15.56,1.18-6.64,1.77-15.33,1.77-26.07v-27.03c0-10.55-.59-19.2-1.77-25.93-1.19-6.73-3.32-11.92-6.42-15.56-3.1-3.64-7.33-6.14-12.69-7.51-5.37-1.36-12.33-2.05-20.88-2.05s-15.56.64-21.02,1.91c-5.46,1.28-9.74,3.78-12.83,7.51-3.1,3.73-5.23,8.92-6.42,15.56-1.19,6.64-1.77,15.33-1.77,26.07v27.03c0,10.56.59,19.16,1.77,25.8,1.18,6.65,3.32,11.83,6.42,15.56,3.09,3.73,7.37,6.28,12.83,7.64,5.46,1.37,12.46,2.05,21.02,2.05Z"/></svg>